<svg xmlns="http://www.w3.org/2000/svg" viewBox="0 0 410 132" width="410" height="132" role="img" aria-label="pig-game: Jogo de dados Pig Game feito com HTML, CSS e JavaScript." xmlns:c2pa="http://c2pa.org/manifest"><metadata><c2pa:manifest>AAAWgmp1bWIAAAAeanVtZGMycGEAEQAQgAAAqgA4m3EDYzJwYQAAABZcanVtYgAAAEdqdW1kYzJtYQARABCAAACqADibcQN1cm46YzJwYToyMGI0NGNkYi04OGYxLTRkY2QtYTQzNC1lMGFlNmMxODNkNGIAAAADl2p1bWIAAAApanVtZGMyYXMAEQAQgAAAqgA4m3EDYzJwYS5hc3NlcnRpb25zAAAAALxqdW1iAAAARGp1bWRjYm9yABEAEIAAAKoAOJtxE2MycGEuaW5ncmVkaWVudC52MwAAAAAYYzJzaC7dngiUMUIExK1h6bcekWwAAABwY2JvcqNpZGM6Zm9ybWF0bWltYWdlL3N2Zyt4bWxqaW5zdGFuY2VJRHgseG1wOmlpZDo5N2FhZGQzMy00NTcwLTQ3YjMtODk4Zi1iM2ZiYjBjODViMmNscmVsYXRpb25zaGlwaHBhcmVudE9mAAAB4mp1bWIAAABBanVtZGNib3IAEQAQgAAAqgA4m3ETYzJwYS5hY3Rpb25zLnYyAAAAABhjMnNonNM5zGi9oXztD+SXJbQpigAAAZljYm9yomdhY3Rpb25zgqJmYWN0aW9ua2MycGEub3BlbmVkanBhcmFtZXRlcnOha2luZ3JlZGllbnRzgaJjdXJseC1zZWxmI2p1bWJmPWMycGEuYXNzZXJ0aW9ucy9jMnBhLmluZ3JlZGllbnQudjNkaGFzaFggkqxBzS6zpad+ipTMjL0CNyJ9BUAdR0v8a5T3RhgN0NikZmFjdGlvbngdY29tLmFudGhyb3BpYy5jbGF1ZGUucHJvdmlkZWRqcGFyYW1ldGVyc6F4H2NvbS5hbnRocm9waWMub3JpZ2luLWNvbmZpZGVuY2VndW5rbm93bmtkZXNjcmlwdGlvbnhmQ2xhdWRlIHByb3ZpZGVkIHRoaXMgZmlsZSBhdCB0aGUgcmVxdWVzdCBvZiBhIHVzZXIgYW5kIG1heSBoYXZlIGNyZWF0ZWQgb3IgbW9kaWZpZWQgdGhlIGZpbGUgY29udGVudHMubXNvZnR3YXJlQWdlbnShZG5hbWVmQ2xhdWRlcmFsbEFjdGlvbnNJbmNsdWRlZPUAAADIanVtYgAAAEBqdW1kY2JvcgARABCAAACqADibcRNjMnBhLmhhc2guZGF0YQAAAAAYYzJzaBL0bq+5Hu8TVlGAoJy3hnwAAACAY2JvcqVjYWxnZnNoYTI1NmNwYWRNAAAAAAAAAAAAAAAAAGRoYXNoWCBcciSuaYwOiS7MGEL9HLJ0rv7PaosdRyos9dV06axKhGRuYW1lbmp1bWJmIG1hbmlmZXN0amV4Y2x1c2lvbnOBomVzdGFydBjxZmxlbmd0aBkeBAAAAj5qdW1iAAAAJ2p1bWRjMmNsABEAEIAAAKoAOJtxA2MycGEuY2xhaW0udjIAAAACD2Nib3KlY2FsZ2ZzaGEyNTZpc2lnbmF0dXJleE1zZWxmI2p1bWJmPS9jMnBhL3VybjpjMnBhOjIwYjQ0Y2RiLTg4ZjEtNGRjZC1hNDM0LWUwYWU2YzE4M2Q0Yi9jMnBhLnNpZ25hdHVyZWppbnN0YW5jZUlEeCx4bXA6aWlkOmViMjg5NTJlLTI5Y2MtNGRlYi1hMDQ2LWE4YTU3MDg2MjMwYXJjcmVhdGVkX2Fzc2VydGlvbnODomN1cmx4LXNlbGYjanVtYmY9YzJwYS5hc3NlcnRpb25zL2MycGEuaW5ncmVkaWVudC52M2RoYXNoWCCSrEHNLrOlp36KlMyMvQI3In0FQB1HS/xrlPdGGA3Q2KJjdXJseCpzZWxmI2p1bWJmPWMycGEuYXNzZXJ0aW9ucy9jMnBhLmFjdGlvbnMudjJkaGFzaFgg6awa96bLd9o9zKbhT8Ud0TVc5fiAQcJglucq9D6SShiiY3VybHgpc2VsZiNqdW1iZj1jMnBhLmFzc2VydGlvbnMvYzJwYS5oYXNoLmRhdGFkaGFzaFggTi9M9xLRW+F6Sb25jUMRAfsw+wktNjmwbqnqVRn6vhh0Y2xhaW1fZ2VuZXJhdG9yX2luZm+jZG5hbWVvQW50aHJvcGljIEZpbGVzZ3ZlcnNpb25lMS4wLjBrc3BlY1ZlcnNpb25lMi40LjAAABA4anVtYgAAAChqdW1kYzJjcwARABCAAACqADibcQNjMnBhLnNpZ25hdHVyZQAAABAIY2JvctKEWQISogEmGCFZAgowggIGMIIBjaADAgECAhRA5aAK7sI50L64g/oGQgU9Z1UTADAKBggqhkjOPQQDAzBJMRcwFQYDVQQKEw5BbnRocm9waWMsIFBCQzEuMCwGA1UEAxMlQW50aHJvcGljIENvbnRlbnQgQ3JlZGVudGlhbHMgUm9vdCBDQTAeFw0yNjA4MDcxODQzNTZaFw0yODA4MDYxOTQzNTZaMEQxFzAVBgNVBAoTDkFudGhyb3BpYywgUEJDMSkwJwYDVQQDEyBBbnRocm9waWMgQ2xhdWRlIENvbnRlbnQgU2lnbmluZzBZMBMGByqGSM49AgEGCCqGSM49AwEHA0IABJh6CmvLUBgFFNU0vUKlOVtE6djd17L5SuwX0LemFisBM3dkd/3cyjxFA3Qo5S46fX0/ihY0VZ7mfb9KF703t5OjWDBWMA4GA1UdDwEB/wQEAwIHgDAVBgNVHSUEDjAMBgorBgEEAYPoXgIBMAwGA1UdEwEB/wQCMAAwHwYDVR0jBBgwFoAUzlHiBIFOZFsj+OPEz5o+nMHXXMIwCgYIKoZIzj0EAwMDZwAwZAIwMXMdFJ4BetLLVY7ORuE9noqbbAZOZn/aArXyTwFAZfKrPzxF2vPoJNf1+UCdg1XGAjBwX1zd9WGqYkqmL5SFqw1QySjr1zJfpJM9+1rdDwSPLMOPOjKuiXjoU/pUUeG9RwmhY3BhZFkNngAAAAAAAAAAAAAAAAAAAAAAAAAAAAAAAAAAAAAAAAAAAAAAAAAAAAAAAAAAAAAAAAAAAAAAAAAAAAAAAAAAAAAAAAAAAAAAAAAAAAAAAAAAAAAAAAAAAAAAAAAAAAAAAAAAAAAAAAAAAAAAAAAAAAAAAAAAAAAAAAAAAAAAAAAAAAAAAAAAAAAAAAAAAAAAAAAAAAAAAAAAAAAAAAAAAAAAAAAAAAAAAAAAAAAAAAAAAAAAAAAAAAAAAAAAAAAAAAAAAAAAAAAAAAAAAAAAAAAAAAAAAAAAAAAAAAAAAAAAAAAAAAAAAAAAAAAAAAAAAAAAAAAAAAAAAAAAAAAAAAAAAAAAAAAAAAAAAAAAAAAAAAAAAAAAAAAAAAAAAAAAAAAAAAAAAAAAAAAAAAAAAAAAAAAAAAAAAAAAAAAAAAAAAAAAAAAAAAAAAAAAAAAAAAAAAAAAAAAAAAAAAAAAAAAAAAAAAAAAAAAAAAAAAAAAAAAAAAAAAAAAAAAAAAAAAAAAAAAAAAAAAAAAAAAAAAAAAAAAAAAAAAAAAAAAAAAAAAAAAAAAAAAAAAAAAAAAAAAAAAAAAAAAAAAAAAAAAAAAAAAAAAAAAAAAAAAAAAAAAAAAAAAAAAAAAAAAAAAAAAAAAAAAAAAAAAAAAAAAAAAAAAAAAAAAAAAAAAAAAAAAAAAAAAAAAAAAAAAAAAAAAAAAAAAAAAAAAAAAAAAAAAAAAAAAAAAAAAAAAAAAAAAAAAAAAAAAAAAAAAAAAAAAAAAAAAAAAAAAAAAAAAAAAAAAAAAAAAAAAAAAAAAAAAAAAAAAAAAAAAAAAAAAAAAAAAAAAAAAAAAAAAAAAAAAAAAAAAAAAAAAAAAAAAAAAAAAAAAAAAAAAAAAAAAAAAAAAAAAAAAAAAAAAAAAAAAAAAAAAAAAAAAAAAAAAAAAAAAAAAAAAAAAAAAAAAAAAAAAAAAAAAAAAAAAAAAAAAAAAAAAAAAAAAAAAAAAAAAAAAAAAAAAAAAAAAAAAAAAAAAAAAAAAAAAAAAAAAAAAAAAAAAAAAAAAAAAAAAAAAAAAAAAAAAAAAAAAAAAAAAAAAAAAAAAAAAAAAAAAAAAAAAAAAAAAAAAAAAAAAAAAAAAAAAAAAAAAAAAAAAAAAAAAAAAAAAAAAAAAAAAAAAAAAAAAAAAAAAAAAAAAAAAAAAAAAAAAAAAAAAAAAAAAAAAAAAAAAAAAAAAAAAAAAAAAAAAAAAAAAAAAAAAAAAAAAAAAAAAAAAAAAAAAAAAAAAAAAAAAAAAAAAAAAAAAAAAAAAAAAAAAAAAAAAAAAAAAAAAAAAAAAAAAAAAAAAAAAAAAAAAAAAAAAAAAAAAAAAAAAAAAAAAAAAAAAAAAAAAAAAAAAAAAAAAAAAAAAAAAAAAAAAAAAAAAAAAAAAAAAAAAAAAAAAAAAAAAAAAAAAAAAAAAAAAAAAAAAAAAAAAAAAAAAAAAAAAAAAAAAAAAAAAAAAAAAAAAAAAAAAAAAAAAAAAAAAAAAAAAAAAAAAAAAAAAAAAAAAAAAAAAAAAAAAAAAAAAAAAAAAAAAAAAAAAAAAAAAAAAAAAAAAAAAAAAAAAAAAAAAAAAAAAAAAAAAAAAAAAAAAAAAAAAAAAAAAAAAAAAAAAAAAAAAAAAAAAAAAAAAAAAAAAAAAAAAAAAAAAAAAAAAAAAAAAAAAAAAAAAAAAAAAAAAAAAAAAAAAAAAAAAAAAAAAAAAAAAAAAAAAAAAAAAAAAAAAAAAAAAAAAAAAAAAAAAAAAAAAAAAAAAAAAAAAAAAAAAAAAAAAAAAAAAAAAAAAAAAAAAAAAAAAAAAAAAAAAAAAAAAAAAAAAAAAAAAAAAAAAAAAAAAAAAAAAAAAAAAAAAAAAAAAAAAAAAAAAAAAAAAAAAAAAAAAAAAAAAAAAAAAAAAAAAAAAAAAAAAAAAAAAAAAAAAAAAAAAAAAAAAAAAAAAAAAAAAAAAAAAAAAAAAAAAAAAAAAAAAAAAAAAAAAAAAAAAAAAAAAAAAAAAAAAAAAAAAAAAAAAAAAAAAAAAAAAAAAAAAAAAAAAAAAAAAAAAAAAAAAAAAAAAAAAAAAAAAAAAAAAAAAAAAAAAAAAAAAAAAAAAAAAAAAAAAAAAAAAAAAAAAAAAAAAAAAAAAAAAAAAAAAAAAAAAAAAAAAAAAAAAAAAAAAAAAAAAAAAAAAAAAAAAAAAAAAAAAAAAAAAAAAAAAAAAAAAAAAAAAAAAAAAAAAAAAAAAAAAAAAAAAAAAAAAAAAAAAAAAAAAAAAAAAAAAAAAAAAAAAAAAAAAAAAAAAAAAAAAAAAAAAAAAAAAAAAAAAAAAAAAAAAAAAAAAAAAAAAAAAAAAAAAAAAAAAAAAAAAAAAAAAAAAAAAAAAAAAAAAAAAAAAAAAAAAAAAAAAAAAAAAAAAAAAAAAAAAAAAAAAAAAAAAAAAAAAAAAAAAAAAAAAAAAAAAAAAAAAAAAAAAAAAAAAAAAAAAAAAAAAAAAAAAAAAAAAAAAAAAAAAAAAAAAAAAAAAAAAAAAAAAAAAAAAAAAAAAAAAAAAAAAAAAAAAAAAAAAAAAAAAAAAAAAAAAAAAAAAAAAAAAAAAAAAAAAAAAAAAAAAAAAAAAAAAAAAAAAAAAAAAAAAAAAAAAAAAAAAAAAAAAAAAAAAAAAAAAAAAAAAAAAAAAAAAAAAAAAAAAAAAAAAAAAAAAAAAAAAAAAAAAAAAAAAAAAAAAAAAAAAAAAAAAAAAAAAAAAAAAAAAAAAAAAAAAAAAAAAAAAAAAAAAAAAAAAAAAAAAAAAAAAAAAAAAAAAAAAAAAAAAAAAAAAAAAAAAAAAAAAAAAAAAAAAAAAAAAAAAAAAAAAAAAAAAAAAAAAAAAAAAAAAAAAAAAAAAAAAAAAAAAAAAAAAAAAAAAAAAAAAAAAAAAAAAAAAAAAAAAAAAAAAAAAAAAAAAAAAAAAAAAAAAAAAAAAAAAAAAAAAAAAAAAAAAAAAAAAAAAAAAAAAAAAAAAAAAAAAAAAAAAAAAAAAAAAAAAAAAAAAAAAAAAAAAAAAAAAAAAAAAAAAAAAAAAAAAAAAAAAAAAAAAAAAAAAAAAAAAAAAAAAAAAAAAAAAAAAAAAAAAAAAAAAAAAAAAAAAAAAAAAAAAAAAAAAAAAAAAAAAAAAAAAAAAAAAAAAAAAAAAAAAAAAAAAAAAAAAAAAAAAAAAAAAAAAAAAAAAAAAAAAAAAAAAAAAAAAAAAAAAAAAAAAAAAAAAAAAAAAAAAAAAAAAAAAAAAAAAAAAAAAAAAAAAAAAAAAAAAAAAAAAAAAAAAAAAAAAAAAAAAAAAAAAAAAAAAAAAAAAAAAAAAAAAAAAAAAAAAAAAAAAAAAAAAAAAAAAAAAAAAAAAAAAAAAAAAAAAAAAAAAAAAAAAAAAAAAAAAAAAAAAAAAAAAAAAAAAAAAAAAAAAAAAAAAAAAAAAAAAAAAAAAAAAAAAAAAAAAAAAAAAAAAAAAAAAAAAAAAAAAAAAAAAAAAAAAAAAAAAAAAAAAAAAAAAAAAAAAAAAAAAAAAAAAAAAAAAAAAAAAAAAAAAAAAAAAAAAAAAAAAAAAAAAAAAAAAAAAAAAAAAAAAAAAAAAAAAAAAAAAAAAAAAAAAAAAAAAAAAAAAAAAAAAAAAAAAAAAAAAAAAAAAAAAAAAAAAAAAAAAAAAAAAAAAAAAAAAAAAAAAAAAAAAAAAAAAAAAAAAAAAAAAAAAAAAAAAAAAAAAAAAAAAAAAAAAAAAAAAAAAAAAAAAAAAAAAAAAAAAAAAAAAAAAAAAAAAAAAAAAAAAAAAAAAAAAAAAAAAAAAAAAAAAAAAAAAAAAAAAAAAAAAAAAAAAAAAAAAAAAAAAAAAAAAAAAAAAAAAAAAAAAAAAAAAAAAAAAAAAAAAAAAAAAAAAAAAAAAAAAAAAAAAAAAAAAAAAAAAAAAAAAAAAAAAAAAAAAAAAAAAAAAAAAAAAAAAAAAAAAAAAAAAAAAAAAAAAAAAAAAAAAAAAAAAAAAAAAAAAAAAAAAAAAAAAAAAAAAAAAAAAAAAAAAAAAAAAAAAAAAAAAAAAAAAAAAAAAAAAAAAAAAAAAAAAAAAAAAAAAAAAAAAAAAAAAAAAAAAAAAAAAAAAAAAAAAAAAAAAAAAAAAAAAAAAAAAAAAAAAAAAAAAAAAAAAAAAAAAAAAAAAAAAAAAAAAAAAAAAAAAAAAAAAAAAAAAAAAAAAAAAAAAAAAAAAAAAAAAAAAAAAAAAAAAAAAAAAAAAAAAAAAAAAAAAAAAAAAAAAAAAAAAAAAAAAAAAAAAAAAAAAAAAAAAAAAAAAAAAAAAAAAAAAAAAAAAAAAAAAAAAAAAAAAAAAAAAAAAAAAAAAAAAAAAAAAAAAAAAAAAAAAAAAAAAAAAAAAAAAAAAAAAAAAAAAAAAAAAAAAAAAAAAAAAAAAAAAAAAAAAAAAAAAAAAAAAAAAAAAAAAAAAAAAAAAAAAAAAAAAAAAAAAAAAAAAAAAAAAAAAAAAAAAAAAAAAAAAAAAAAAAAAAAAAAAAAAAAAAAAAAAAAAAAAAAAAAAAAAAAAAAAAAAAAAAAAAAAAAAAAAAAAAAAAAAAAAAAAAAAAAAAAAAAAAAAAAAAAAAAAAAAAAAAAAAAAAAAAAAAAAAAAAAPZYQA250ef3/rVvj2RdFvaC0plaLD9Tsjd61c2jv4UToFGNy4M+BmTd7KwcmfysyQDAr302Extzrujk9ZkTlrfh/2w=</c2pa:manifest></metadata>
  <title>pig-game</title>
  <rect x="1" y="1" width="408" height="130" rx="12" fill="#0A0E13" stroke="#252c36" stroke-width="1.5"/>
  <rect x="24" y="20" width="3" height="18" rx="1.5" fill="#4DA8FF"/>
  <path d="M43.4 25.6Q44.5 25.6 45.2 26.1Q45.8 26.7 46.1 27.6Q46.4 28.6 46.4 29.9Q46.4 31.2 46.1 32.1Q45.7 33.1 45 33.7Q44.3 34.2 43.3 34.2Q42 34.2 41.3 33.3V37.1L39.2 37.4V25.9H41L41.1 26.8Q41.6 26.2 42.2 25.9Q42.8 25.6 43.4 25.6ZM42.9 27.1Q42.3 27.1 42 27.5Q41.6 27.8 41.3 28.2V31.9Q41.8 32.7 42.7 32.7Q43.5 32.7 43.9 32Q44.3 31.4 44.3 29.9Q44.3 28.4 43.9 27.8Q43.6 27.1 42.9 27.1Z M51.8 21.7Q52.4 21.7 52.7 22.1Q53.1 22.4 53.1 23Q53.1 23.5 52.7 23.8Q52.4 24.2 51.8 24.2Q51.3 24.2 50.9 23.8Q50.6 23.5 50.6 23Q50.6 22.4 50.9 22.1Q51.3 21.7 51.8 21.7ZM53.2 25.9V32.6H55.3V34H48.7V32.6H51.1V27.3H48.8V25.9Z M64.7 24.7 65.2 26.3Q64.8 26.5 64.2 26.5Q63.6 26.6 62.9 26.6Q63.6 26.9 64 27.4Q64.4 27.9 64.4 28.7Q64.4 29.5 64 30.1Q63.6 30.7 62.8 31.1Q62.1 31.4 61.1 31.4Q60.5 31.4 60 31.3Q59.7 31.5 59.7 31.9Q59.7 32.1 59.9 32.3Q60.1 32.4 60.7 32.4H62.1Q63 32.4 63.6 32.7Q64.3 33 64.7 33.6Q65.1 34.1 65.1 34.7Q65.1 36 64 36.7Q62.9 37.4 60.9 37.4Q59.4 37.4 58.6 37.1Q57.8 36.8 57.5 36.2Q57.1 35.6 57.1 34.8H58.9Q58.9 35.2 59.1 35.5Q59.2 35.7 59.7 35.8Q60.1 35.9 60.9 35.9Q62.2 35.9 62.6 35.7Q63.1 35.4 63.1 34.9Q63.1 34.4 62.7 34.2Q62.3 33.9 61.6 33.9H60.3Q59.1 33.9 58.5 33.5Q57.9 33 57.9 32.4Q57.9 31.9 58.2 31.5Q58.4 31.1 58.9 30.9Q58.1 30.5 57.8 29.9Q57.4 29.3 57.4 28.5Q57.4 27.7 57.9 27Q58.3 26.4 59.1 26Q59.9 25.6 60.9 25.6Q61.9 25.6 62.6 25.5Q63.2 25.4 63.7 25.2Q64.2 25 64.7 24.7ZM61 27Q60.3 27 59.9 27.4Q59.5 27.8 59.5 28.5Q59.5 29.3 59.9 29.7Q60.3 30.1 61 30.1Q62.4 30.1 62.4 28.5Q62.4 27 61 27Z M67.1 30V28.4H73.6V30Z M83.2 24.7 83.7 26.3Q83.2 26.5 82.7 26.5Q82.1 26.6 81.3 26.6Q82.1 26.9 82.5 27.4Q82.9 27.9 82.9 28.7Q82.9 29.5 82.4 30.1Q82 30.7 81.3 31.1Q80.6 31.4 79.5 31.4Q79 31.4 78.5 31.3Q78.2 31.5 78.2 31.9Q78.2 32.1 78.4 32.3Q78.5 32.4 79.1 32.4H80.5Q81.4 32.4 82.1 32.7Q82.8 33 83.2 33.6Q83.5 34.1 83.5 34.7Q83.5 36 82.5 36.7Q81.4 37.4 79.4 37.4Q77.9 37.4 77.1 37.1Q76.2 36.8 75.9 36.2Q75.6 35.6 75.6 34.8H77.4Q77.4 35.2 77.5 35.5Q77.7 35.7 78.1 35.8Q78.6 35.9 79.4 35.9Q80.6 35.9 81.1 35.7Q81.5 35.4 81.5 34.9Q81.5 34.4 81.2 34.2Q80.8 33.9 80.1 33.9H78.8Q77.5 33.9 77 33.5Q76.4 33 76.4 32.4Q76.4 31.9 76.6 31.5Q76.9 31.1 77.3 30.9Q76.6 30.5 76.2 29.9Q75.9 29.3 75.9 28.5Q75.9 27.7 76.3 27Q76.8 26.4 77.6 26Q78.4 25.6 79.4 25.6Q80.3 25.6 81 25.5Q81.7 25.4 82.2 25.2Q82.7 25 83.2 24.7ZM79.4 27Q78.7 27 78.3 27.4Q78 27.8 78 28.5Q78 29.3 78.3 29.7Q78.7 30.1 79.4 30.1Q80.9 30.1 80.9 28.5Q80.9 27 79.4 27Z M91.9 31.9Q91.9 32.3 92 32.5Q92.2 32.8 92.5 32.9L92 34.2Q91.4 34.1 90.9 33.9Q90.5 33.6 90.2 33.1Q89.8 33.7 89.1 34Q88.4 34.2 87.6 34.2Q86.3 34.2 85.6 33.5Q84.9 32.8 84.9 31.7Q84.9 30.4 85.9 29.7Q86.9 29 88.8 29H89.9V28.5Q89.9 27.8 89.5 27.5Q89 27.2 88.2 27.2Q87.8 27.2 87.2 27.3Q86.6 27.4 86 27.6L85.5 26.2Q86.3 25.9 87.1 25.8Q87.9 25.6 88.5 25.6Q90.2 25.6 91.1 26.4Q91.9 27.1 91.9 28.4ZM88.2 32.8Q88.7 32.8 89.2 32.5Q89.6 32.2 89.9 31.8V30.2H89.1Q88 30.2 87.5 30.5Q87 30.9 87 31.6Q87 32.8 88.2 32.8Z M100.4 25.6Q101.2 25.6 101.6 26.1Q102.1 26.6 102.1 28V34H100.3V28.2Q100.3 27.7 100.2 27.4Q100.1 27.2 99.8 27.2Q99.6 27.2 99.3 27.4Q99 27.5 98.8 27.9V34H97.2V28.2Q97.2 27.7 97.2 27.4Q97.1 27.2 96.8 27.2Q96.5 27.2 96.2 27.4Q96 27.5 95.7 27.9V34H93.9V25.9H95.4L95.6 26.7Q95.9 26.2 96.3 25.9Q96.7 25.6 97.3 25.6Q97.8 25.6 98.1 25.9Q98.5 26.1 98.6 26.6Q99 26.2 99.4 25.9Q99.8 25.6 100.4 25.6Z M105.6 30.5Q105.7 31.7 106.3 32.2Q106.8 32.7 107.7 32.7Q108.3 32.7 108.8 32.5Q109.3 32.3 109.8 32L110.6 33.2Q110.1 33.6 109.3 33.9Q108.5 34.2 107.6 34.2Q106.2 34.2 105.3 33.7Q104.4 33.1 104 32.2Q103.5 31.2 103.5 29.9Q103.5 28.7 103.9 27.7Q104.4 26.8 105.3 26.2Q106.1 25.6 107.3 25.6Q109 25.6 110 26.7Q111 27.8 111 29.7Q111 30.2 110.9 30.5ZM107.3 27.1Q106.6 27.1 106.1 27.6Q105.6 28.1 105.6 29.2H109Q109 28.2 108.6 27.6Q108.2 27.1 107.3 27.1Z" fill="#4DA8FF"/>
  <path d="M30.1 53.5V59.2Q30.1 59.7 30 60.2Q29.8 60.8 29.5 61.2Q29.2 61.6 28.6 61.9Q28.1 62.1 27.2 62.1Q25.9 62.1 24.9 61.4L25.4 60.7Q25.9 61 26.4 61.1Q26.8 61.2 27.2 61.2Q28.1 61.2 28.6 60.7Q29 60.1 29 59.1V54.4H26.5V53.5Z M35.1 55.4Q36.5 55.4 37.2 56.3Q37.9 57.2 37.9 58.8Q37.9 59.7 37.5 60.5Q37.2 61.3 36.6 61.7Q36 62.1 35.1 62.1Q33.7 62.1 33 61.2Q32.3 60.3 32.3 58.8Q32.3 57.8 32.6 57Q32.9 56.2 33.6 55.8Q34.2 55.4 35.1 55.4ZM35.1 56.2Q34.3 56.2 33.8 56.8Q33.4 57.5 33.4 58.8Q33.4 60.1 33.8 60.7Q34.2 61.3 35.1 61.3Q35.9 61.3 36.3 60.7Q36.8 60 36.8 58.8Q36.8 57.5 36.3 56.8Q35.9 56.2 35.1 56.2Z M45.3 54.8 45.6 55.8Q45.2 55.9 44.7 56Q44.2 56 43.7 56Q44.8 56.5 44.8 57.6Q44.8 58.6 44.2 59.2Q43.5 59.8 42.4 59.8Q42.1 59.8 41.8 59.8Q41.6 59.8 41.4 59.7Q41.3 59.8 41.2 60Q41.1 60.1 41.1 60.3Q41.1 60.6 41.3 60.7Q41.5 60.9 42 60.9H43.1Q43.8 60.9 44.3 61.1Q44.8 61.3 45.1 61.7Q45.4 62.1 45.4 62.6Q45.4 63.6 44.6 64.1Q43.8 64.6 42.3 64.6Q41.3 64.6 40.7 64.4Q40.1 64.2 39.8 63.8Q39.6 63.3 39.6 62.7H40.5Q40.5 63 40.7 63.3Q40.8 63.5 41.2 63.6Q41.6 63.8 42.3 63.8Q43.4 63.8 43.9 63.5Q44.4 63.2 44.4 62.7Q44.4 62.2 43.9 62Q43.5 61.8 42.9 61.8H41.7Q40.9 61.8 40.5 61.4Q40.1 61 40.1 60.6Q40.1 59.9 40.8 59.4Q39.7 58.8 39.7 57.6Q39.7 57 40.1 56.5Q40.4 56 41 55.7Q41.6 55.4 42.3 55.4Q43.1 55.4 43.6 55.3Q44.2 55.2 44.5 55.1Q44.9 55 45.3 54.8ZM42.3 56.1Q41.5 56.1 41.2 56.6Q40.8 57 40.8 57.6Q40.8 58.3 41.2 58.7Q41.6 59.1 42.3 59.1Q43 59.1 43.4 58.7Q43.8 58.3 43.8 57.6Q43.8 56.1 42.3 56.1Z M49.9 55.4Q51.2 55.4 51.9 56.3Q52.6 57.2 52.6 58.8Q52.6 59.7 52.3 60.5Q52 61.3 51.4 61.7Q50.8 62.1 49.8 62.1Q48.5 62.1 47.8 61.2Q47.1 60.3 47.1 58.8Q47.1 57.8 47.4 57Q47.7 56.2 48.3 55.8Q48.9 55.4 49.9 55.4ZM49.9 56.2Q49 56.2 48.6 56.8Q48.2 57.5 48.2 58.8Q48.2 60.1 48.6 60.7Q49 61.3 49.8 61.3Q50.7 61.3 51.1 60.7Q51.5 60 51.5 58.8Q51.5 57.5 51.1 56.8Q50.7 56.2 49.9 56.2Z M66 52.8 67.1 52.9V62H66.2L66.1 61.1Q65.7 61.7 65.2 61.9Q64.8 62.1 64.2 62.1Q63.4 62.1 62.8 61.7Q62.3 61.3 62 60.5Q61.8 59.8 61.8 58.8Q61.8 57.8 62.1 57Q62.4 56.3 62.9 55.8Q63.5 55.4 64.3 55.4Q65.4 55.4 66 56.1ZM64.6 56.2Q63.8 56.2 63.3 56.8Q62.9 57.5 62.9 58.8Q62.9 61.3 64.4 61.3Q65 61.3 65.4 61Q65.8 60.7 66 60.3V57Q65.8 56.7 65.4 56.4Q65 56.2 64.6 56.2Z M70.4 59.1Q70.4 60.3 71 60.8Q71.5 61.3 72.3 61.3Q72.8 61.3 73.2 61.1Q73.6 61 74 60.7L74.5 61.4Q74 61.7 73.4 61.9Q72.8 62.1 72.2 62.1Q71.3 62.1 70.6 61.7Q70 61.3 69.6 60.5Q69.3 59.8 69.3 58.8Q69.3 57.8 69.6 57Q70 56.3 70.6 55.8Q71.2 55.4 72.1 55.4Q73.3 55.4 74 56.2Q74.7 57.1 74.7 58.6Q74.7 58.7 74.7 58.9Q74.7 59 74.7 59.1ZM72.1 56.2Q71.4 56.2 70.9 56.7Q70.4 57.3 70.4 58.3H73.7Q73.7 57.3 73.3 56.8Q72.8 56.2 72.1 56.2Z M88.2 52.8 89.2 52.9V62H88.3L88.2 61.1Q87.9 61.7 87.4 61.9Q86.9 62.1 86.4 62.1Q85.5 62.1 85 61.7Q84.4 61.3 84.2 60.5Q83.9 59.8 83.9 58.8Q83.9 57.8 84.2 57Q84.5 56.3 85.1 55.8Q85.7 55.4 86.5 55.4Q87.5 55.4 88.2 56.1ZM86.7 56.2Q85.9 56.2 85.5 56.8Q85 57.5 85 58.8Q85 61.3 86.6 61.3Q87.1 61.3 87.5 61Q87.9 60.7 88.2 60.3V57Q87.9 56.7 87.6 56.4Q87.2 56.2 86.7 56.2Z M96.3 60.6Q96.3 61 96.5 61.2Q96.6 61.3 96.9 61.4L96.6 62.1Q96.2 62.1 95.9 61.9Q95.6 61.7 95.4 61.2Q95.1 61.7 94.6 61.9Q94 62.1 93.4 62.1Q92.4 62.1 91.9 61.6Q91.3 61 91.3 60.1Q91.3 59.1 92.1 58.6Q92.9 58.1 94.3 58.1H95.3V57.5Q95.3 56.8 94.9 56.5Q94.5 56.2 93.8 56.2Q93.4 56.2 93 56.3Q92.6 56.4 92.1 56.6L91.8 55.8Q92.4 55.6 92.9 55.5Q93.4 55.4 93.9 55.4Q95.1 55.4 95.7 56Q96.3 56.5 96.3 57.5ZM93.7 61.4Q94.1 61.4 94.6 61.1Q95 60.9 95.3 60.4V58.8H94.4Q93.3 58.8 92.9 59.1Q92.4 59.5 92.4 60.1Q92.4 61.4 93.7 61.4Z M103 52.8 104 52.9V62H103.1L103 61.1Q102.6 61.7 102.2 61.9Q101.7 62.1 101.2 62.1Q100.3 62.1 99.8 61.7Q99.2 61.3 98.9 60.5Q98.7 59.8 98.7 58.8Q98.7 57.8 99 57Q99.3 56.3 99.9 55.8Q100.4 55.4 101.2 55.4Q102.3 55.4 103 56.1ZM101.5 56.2Q100.7 56.2 100.2 56.8Q99.8 57.5 99.8 58.8Q99.8 61.3 101.4 61.3Q101.9 61.3 102.3 61Q102.7 60.7 103 60.3V57Q102.7 56.7 102.3 56.4Q101.9 56.2 101.5 56.2Z M108.9 55.4Q110.3 55.4 111 56.3Q111.7 57.2 111.7 58.8Q111.7 59.7 111.4 60.5Q111.1 61.3 110.4 61.7Q109.8 62.1 108.9 62.1Q107.6 62.1 106.8 61.2Q106.1 60.3 106.1 58.8Q106.1 57.8 106.5 57Q106.8 56.2 107.4 55.8Q108 55.4 108.9 55.4ZM108.9 56.2Q108.1 56.2 107.7 56.8Q107.2 57.5 107.2 58.8Q107.2 60.1 107.7 60.7Q108.1 61.3 108.9 61.3Q109.8 61.3 110.2 60.7Q110.6 60 110.6 58.8Q110.6 57.5 110.2 56.8Q109.8 56.2 108.9 56.2Z M116.1 61.3Q116.8 61.3 117.2 61Q117.7 60.7 117.7 60.3Q117.7 60 117.6 59.8Q117.5 59.5 117.1 59.4Q116.8 59.2 116.1 59Q115.4 58.8 114.9 58.6Q114.4 58.4 114.2 58.1Q113.9 57.7 113.9 57.2Q113.9 56.3 114.6 55.9Q115.3 55.4 116.4 55.4Q117.1 55.4 117.7 55.6Q118.3 55.8 118.7 56.1L118.2 56.8Q117.9 56.5 117.4 56.4Q117 56.2 116.4 56.2Q115.6 56.2 115.3 56.5Q115 56.7 115 57.1Q115 57.4 115.1 57.5Q115.3 57.7 115.6 57.9Q116 58 116.7 58.2Q117.3 58.4 117.8 58.6Q118.3 58.8 118.5 59.2Q118.8 59.6 118.8 60.2Q118.8 60.9 118.4 61.3Q118 61.8 117.4 61.9Q116.8 62.1 116.1 62.1Q115.2 62.1 114.6 61.9Q113.9 61.6 113.5 61.3L114.1 60.6Q114.5 60.9 115 61.1Q115.5 61.3 116.1 61.3Z M134.2 56.1Q134.2 57.1 133.8 57.7Q133.4 58.3 132.7 58.6Q131.9 58.9 131 58.9H129.9V62H128.8V53.5H131Q132.5 53.5 133.4 54.2Q134.2 54.8 134.2 56.1ZM133.1 56.1Q133.1 55.5 132.8 55.1Q132.6 54.7 132.1 54.5Q131.7 54.4 131.1 54.4H129.9V58H131.1Q131.6 58 132.1 57.8Q132.6 57.7 132.8 57.3Q133.1 56.9 133.1 56.1Z M138.5 52.5Q138.8 52.5 139 52.7Q139.2 52.9 139.2 53.2Q139.2 53.5 139 53.7Q138.8 53.9 138.5 53.9Q138.1 53.9 137.9 53.7Q137.7 53.5 137.7 53.2Q137.7 52.9 137.9 52.7Q138.1 52.5 138.5 52.5ZM139.3 55.5V61.2H141.1V62H136.3V61.2H138.3V56.3H136.3V55.5Z M148.7 54.8 149 55.8Q148.6 55.9 148.1 56Q147.6 56 147.1 56Q148.2 56.5 148.2 57.6Q148.2 58.6 147.6 59.2Q146.9 59.8 145.8 59.8Q145.4 59.8 145.2 59.8Q145 59.8 144.8 59.7Q144.7 59.8 144.6 60Q144.5 60.1 144.5 60.3Q144.5 60.6 144.7 60.7Q144.8 60.9 145.3 60.9H146.5Q147.2 60.9 147.7 61.1Q148.2 61.3 148.5 61.7Q148.8 62.1 148.8 62.6Q148.8 63.6 148 64.1Q147.2 64.6 145.7 64.6Q144.7 64.6 144.1 64.4Q143.5 64.2 143.2 63.8Q143 63.3 143 62.7H143.9Q143.9 63 144 63.3Q144.2 63.5 144.6 63.6Q145 63.8 145.7 63.8Q146.8 63.8 147.3 63.5Q147.7 63.2 147.7 62.7Q147.7 62.2 147.3 62Q146.9 61.8 146.3 61.8H145.1Q144.3 61.8 143.9 61.4Q143.5 61 143.5 60.6Q143.5 59.9 144.2 59.4Q143.1 58.8 143.1 57.6Q143.1 57 143.4 56.5Q143.8 56 144.4 55.7Q144.9 55.4 145.7 55.4Q146.5 55.4 147 55.3Q147.5 55.2 147.9 55.1Q148.3 55 148.7 54.8ZM145.7 56.1Q144.9 56.1 144.6 56.6Q144.2 57 144.2 57.6Q144.2 58.3 144.6 58.7Q144.9 59.1 145.7 59.1Q146.4 59.1 146.8 58.7Q147.1 58.3 147.1 57.6Q147.1 56.1 145.7 56.1Z M160.8 62.1Q159.3 62.1 158.4 61Q157.5 60 157.5 57.8Q157.5 56.7 157.8 55.8Q158.1 55 158.6 54.5Q159.1 53.9 159.7 53.7Q160.3 53.4 161 53.4Q161.9 53.4 162.4 53.6Q163 53.9 163.5 54.3L162.8 55Q162 54.3 161 54.3Q160.4 54.3 159.9 54.6Q159.3 54.9 159 55.7Q158.6 56.4 158.6 57.8Q158.6 59.6 159.2 60.4Q159.8 61.2 160.9 61.2Q161.7 61.2 162.5 60.8V58.3H160.8L160.7 57.4H163.6V61.4Q163 61.7 162.3 61.9Q161.7 62.1 160.8 62.1Z M170.2 60.6Q170.2 61 170.3 61.2Q170.4 61.3 170.7 61.4L170.5 62.1Q170 62.1 169.7 61.9Q169.4 61.7 169.3 61.2Q168.9 61.7 168.4 61.9Q167.9 62.1 167.2 62.1Q166.3 62.1 165.7 61.6Q165.2 61 165.2 60.1Q165.2 59.1 165.9 58.6Q166.7 58.1 168.2 58.1H169.1V57.5Q169.1 56.8 168.7 56.5Q168.3 56.2 167.6 56.2Q167.3 56.2 166.8 56.3Q166.4 56.4 165.9 56.6L165.6 55.8Q166.2 55.6 166.8 55.5Q167.3 55.4 167.8 55.4Q169 55.4 169.6 56Q170.2 56.5 170.2 57.5ZM167.5 61.4Q168 61.4 168.4 61.1Q168.9 60.9 169.1 60.4V58.8H168.2Q167.1 58.8 166.7 59.1Q166.3 59.5 166.3 60.1Q166.3 61.4 167.5 61.4Z M177.2 55.4Q177.5 55.4 177.8 55.5Q178.1 55.7 178.3 56Q178.5 56.4 178.5 57.2V62H177.5V57.3Q177.5 56.7 177.4 56.5Q177.3 56.2 177 56.2Q176.7 56.2 176.4 56.4Q176.1 56.6 175.9 57V62H174.9V57.3Q174.9 56.7 174.8 56.5Q174.8 56.2 174.4 56.2Q174.1 56.2 173.8 56.4Q173.5 56.6 173.3 57V62H172.3V55.5H173.1L173.2 56.3Q173.5 55.9 173.8 55.6Q174.1 55.4 174.6 55.4Q175 55.4 175.3 55.6Q175.6 55.7 175.8 56.2Q176 55.9 176.4 55.6Q176.7 55.4 177.2 55.4Z M181.1 59.1Q181.2 60.3 181.7 60.8Q182.3 61.3 183 61.3Q183.5 61.3 183.9 61.1Q184.3 61 184.8 60.7L185.2 61.4Q184.8 61.7 184.2 61.9Q183.6 62.1 183 62.1Q182.1 62.1 181.4 61.7Q180.7 61.3 180.4 60.5Q180 59.8 180 58.8Q180 57.8 180.4 57Q180.7 56.3 181.4 55.8Q182 55.4 182.9 55.4Q184.1 55.4 184.8 56.2Q185.5 57.1 185.5 58.6Q185.5 58.7 185.5 58.9Q185.5 59 185.5 59.1ZM182.9 56.2Q182.2 56.2 181.7 56.7Q181.2 57.3 181.1 58.3H184.5Q184.5 57.3 184.1 56.8Q183.6 56.2 182.9 56.2Z M198.9 52.8Q199.4 52.8 199.9 52.9Q200.3 53 200.7 53.1L200.3 53.9Q200 53.8 199.7 53.7Q199.3 53.6 198.9 53.6Q197.6 53.6 197.6 54.7V56H199.8L199.7 56.8H197.6V62H196.5V56.8H195V56H196.5V54.7Q196.5 54.1 196.9 53.7Q197.2 53.3 197.7 53Q198.2 52.8 198.9 52.8Z M203.3 59.1Q203.3 60.3 203.9 60.8Q204.4 61.3 205.2 61.3Q205.7 61.3 206.1 61.1Q206.5 61 206.9 60.7L207.4 61.4Q206.9 61.7 206.4 61.9Q205.8 62.1 205.2 62.1Q204.2 62.1 203.6 61.7Q202.9 61.3 202.5 60.5Q202.2 59.8 202.2 58.8Q202.2 57.8 202.5 57Q202.9 56.3 203.5 55.8Q204.2 55.4 205 55.4Q206.3 55.4 207 56.2Q207.7 57.1 207.7 58.6Q207.7 58.7 207.7 58.9Q207.6 59 207.6 59.1ZM205 56.2Q204.3 56.2 203.8 56.7Q203.3 57.3 203.3 58.3H206.7Q206.6 57.3 206.2 56.8Q205.8 56.2 205 56.2Z M212.3 52.5Q212.7 52.5 212.9 52.7Q213.1 52.9 213.1 53.2Q213.1 53.5 212.9 53.7Q212.7 53.9 212.3 53.9Q212 53.9 211.8 53.7Q211.6 53.5 211.6 53.2Q211.6 52.9 211.8 52.7Q212 52.5 212.3 52.5ZM213.1 55.5V61.2H215V62H210.1V61.2H212.1V56.3H210.2V55.5Z M222.4 61.7Q222 61.9 221.6 62Q221.1 62.1 220.6 62.1Q219.6 62.1 219 61.6Q218.5 61 218.5 60.2V56.3H217V55.5H218.5V54L219.5 53.9V55.5H221.7L221.6 56.3H219.5V60.2Q219.5 60.7 219.8 61Q220.1 61.3 220.7 61.3Q221.1 61.3 221.4 61.2Q221.7 61.1 222 61Z M227.1 55.4Q228.5 55.4 229.2 56.3Q229.9 57.2 229.9 58.8Q229.9 59.7 229.5 60.5Q229.2 61.3 228.6 61.7Q228 62.1 227.1 62.1Q225.7 62.1 225 61.2Q224.3 60.3 224.3 58.8Q224.3 57.8 224.6 57Q224.9 56.2 225.6 55.8Q226.2 55.4 227.1 55.4ZM227.1 56.2Q226.3 56.2 225.8 56.8Q225.4 57.5 225.4 58.8Q225.4 60.1 225.8 60.7Q226.2 61.3 227.1 61.3Q227.9 61.3 228.3 60.7Q228.8 60 228.8 58.8Q228.8 57.5 228.3 56.8Q227.9 56.2 227.1 56.2Z M242.3 61.2Q242.8 61.2 243.2 61.1Q243.6 60.9 244 60.7L244.5 61.4Q244.1 61.7 243.5 61.9Q242.9 62.1 242.3 62.1Q241.4 62.1 240.7 61.7Q240 61.3 239.6 60.6Q239.3 59.8 239.3 58.8Q239.3 57.8 239.6 57Q240 56.3 240.7 55.8Q241.4 55.4 242.3 55.4Q243.6 55.4 244.5 56.1L244 56.8Q243.2 56.2 242.3 56.2Q241.5 56.2 240.9 56.9Q240.4 57.5 240.4 58.8Q240.4 60.1 240.9 60.7Q241.5 61.2 242.3 61.2Z M249.2 55.4Q250.6 55.4 251.3 56.3Q252 57.2 252 58.8Q252 59.7 251.7 60.5Q251.4 61.3 250.8 61.7Q250.1 62.1 249.2 62.1Q247.9 62.1 247.2 61.2Q246.4 60.3 246.4 58.8Q246.4 57.8 246.8 57Q247.1 56.2 247.7 55.8Q248.3 55.4 249.2 55.4ZM249.2 56.2Q248.4 56.2 248 56.8Q247.6 57.5 247.6 58.8Q247.6 60.1 248 60.7Q248.4 61.3 249.2 61.3Q250.1 61.3 250.5 60.7Q250.9 60 250.9 58.8Q250.9 57.5 250.5 56.8Q250.1 56.2 249.2 56.2Z M258.4 55.4Q258.7 55.4 259 55.5Q259.3 55.7 259.5 56Q259.7 56.4 259.7 57.2V62H258.7V57.3Q258.7 56.7 258.7 56.5Q258.6 56.2 258.2 56.2Q257.9 56.2 257.6 56.4Q257.4 56.6 257.1 57V62H256.1V57.3Q256.1 56.7 256.1 56.5Q256 56.2 255.6 56.2Q255.3 56.2 255 56.4Q254.8 56.6 254.5 57V62H253.5V55.5H254.4L254.4 56.3Q254.7 55.9 255 55.6Q255.3 55.4 255.8 55.4Q256.2 55.4 256.5 55.6Q256.8 55.7 257 56.2Q257.3 55.9 257.6 55.6Q257.9 55.4 258.4 55.4Z M273 62V58H269.8V62H268.7V53.5H269.8V57.1H273V53.5H274V62Z M279.3 54.4V62H278.2V54.4H275.6V53.5H282L281.9 54.4Z M289 53.5 289.5 62H288.4L288.2 57.6Q288.1 57 288.1 56.4Q288.1 55.8 288.1 55.3Q288.1 54.8 288.1 54.5L286.7 60.5H285.6L284.1 54.5Q284.1 54.7 284.1 55.3Q284.1 55.8 284.1 56.4Q284.1 57 284.1 57.6L283.8 62H282.8L283.3 53.5H284.8L286.2 59.3L287.5 53.5Z M291.5 62V53.5H292.6V61H296.4L296.3 62Z M300.9 60Q301.3 60 301.6 60.3Q301.9 60.6 301.9 61Q301.9 61.2 301.9 61.4Q301.8 61.6 301.7 61.9L300.7 64.2H299.7L300.3 61.8Q299.9 61.5 299.9 61Q299.9 60.6 300.2 60.3Q300.5 60 300.9 60Z M316.4 53.4Q317.2 53.4 317.8 53.6Q318.4 53.8 318.9 54.2L318.3 54.9Q317.9 54.6 317.4 54.4Q317 54.3 316.5 54.3Q315.8 54.3 315.2 54.6Q314.6 54.9 314.2 55.7Q313.9 56.5 313.9 57.8Q313.9 59 314.2 59.8Q314.6 60.5 315.2 60.9Q315.7 61.2 316.5 61.2Q317.2 61.2 317.6 61Q318.1 60.8 318.4 60.5L319 61.2Q318.6 61.6 318 61.9Q317.4 62.1 316.4 62.1Q315.4 62.1 314.6 61.6Q313.8 61.1 313.3 60.2Q312.8 59.2 312.8 57.8Q312.8 56.3 313.3 55.4Q313.8 54.4 314.6 53.9Q315.4 53.4 316.4 53.4Z M326 59.7Q326 60.4 325.6 60.9Q325.3 61.5 324.6 61.8Q323.9 62.1 322.9 62.1Q322 62.1 321.2 61.9Q320.5 61.6 319.9 61.1L320.6 60.3Q321 60.8 321.6 61Q322.1 61.2 322.9 61.2Q323.4 61.2 323.9 61.1Q324.3 60.9 324.6 60.6Q324.9 60.2 324.9 59.7Q324.9 59.3 324.7 59Q324.6 58.7 324.2 58.5Q323.7 58.2 323 58Q322.2 57.8 321.6 57.5Q321 57.2 320.6 56.7Q320.3 56.2 320.3 55.6Q320.3 54.9 320.6 54.4Q321 54 321.6 53.7Q322.2 53.4 323 53.4Q323.9 53.4 324.6 53.6Q325.2 53.9 325.7 54.4L325.1 55.1Q324.7 54.7 324.1 54.5Q323.6 54.3 323.1 54.3Q322.4 54.3 321.9 54.6Q321.4 54.9 321.4 55.5Q321.4 55.9 321.6 56.2Q321.8 56.4 322.2 56.6Q322.7 56.9 323.5 57.1Q324.2 57.3 324.7 57.6Q325.3 57.9 325.6 58.4Q326 58.8 326 59.7Z M333.4 59.7Q333.4 60.4 333 60.9Q332.6 61.5 332 61.8Q331.3 62.1 330.3 62.1Q329.3 62.1 328.6 61.9Q327.8 61.6 327.3 61.1L327.9 60.3Q328.4 60.8 328.9 61Q329.5 61.2 330.3 61.2Q330.8 61.2 331.3 61.1Q331.7 60.9 332 60.6Q332.3 60.2 332.3 59.7Q332.3 59.3 332.1 59Q331.9 58.7 331.5 58.5Q331.1 58.2 330.4 58Q329.6 57.8 329 57.5Q328.3 57.2 328 56.7Q327.7 56.2 327.7 55.6Q327.7 54.9 328 54.4Q328.4 54 329 53.7Q329.6 53.4 330.4 53.4Q331.3 53.4 331.9 53.6Q332.6 53.9 333.1 54.4L332.5 55.1Q332 54.7 331.5 54.5Q331 54.3 330.5 54.3Q329.8 54.3 329.3 54.6Q328.8 54.9 328.8 55.5Q328.8 55.9 329 56.2Q329.2 56.4 329.6 56.6Q330.1 56.9 330.9 57.1Q331.6 57.3 332.1 57.6Q332.7 57.9 333 58.4Q333.4 58.8 333.4 59.7Z M343.6 59.1Q343.6 60.3 344.2 60.8Q344.7 61.3 345.5 61.3Q346 61.3 346.4 61.1Q346.8 61 347.2 60.7L347.7 61.4Q347.2 61.7 346.7 61.9Q346.1 62.1 345.5 62.1Q344.5 62.1 343.9 61.7Q343.2 61.3 342.9 60.5Q342.5 59.8 342.5 58.8Q342.5 57.8 342.9 57Q343.2 56.3 343.8 55.8Q344.5 55.4 345.3 55.4Q346.6 55.4 347.3 56.2Q348 57.1 348 58.6Q348 58.7 348 58.9Q348 59 347.9 59.1ZM345.3 56.2Q344.6 56.2 344.1 56.7Q343.7 57.3 343.6 58.3H347Q347 57.3 346.5 56.8Q346.1 56.2 345.3 56.2Z" fill="#C9D1D9"/>
  <path d="M30.1 71.5V77.2Q30.1 77.7 30 78.2Q29.8 78.8 29.5 79.2Q29.2 79.6 28.6 79.9Q28.1 80.1 27.2 80.1Q25.9 80.1 24.9 79.4L25.4 78.7Q25.9 79 26.4 79.1Q26.8 79.2 27.2 79.2Q28.1 79.2 28.6 78.7Q29 78.1 29 77.1V72.4H26.5V71.5Z M37.3 78.6Q37.3 79 37.4 79.2Q37.5 79.3 37.8 79.4L37.5 80.1Q37.1 80.1 36.8 79.9Q36.5 79.7 36.4 79.2Q36 79.7 35.5 79.9Q34.9 80.1 34.3 80.1Q33.3 80.1 32.8 79.6Q32.2 79 32.2 78.1Q32.2 77.1 33 76.6Q33.8 76.1 35.3 76.1H36.2V75.5Q36.2 74.8 35.8 74.5Q35.4 74.2 34.7 74.2Q34.4 74.2 33.9 74.3Q33.5 74.4 33 74.6L32.7 73.8Q33.3 73.6 33.8 73.5Q34.4 73.4 34.8 73.4Q36 73.4 36.7 74Q37.3 74.5 37.3 75.5ZM34.6 79.4Q35.1 79.4 35.5 79.1Q35.9 78.9 36.2 78.4V76.8H35.3Q34.2 76.8 33.8 77.1Q33.3 77.5 33.3 78.1Q33.3 79.4 34.6 79.4Z M45.4 73.5 43.1 80H41.9L39.5 73.5H40.6L42.5 79.1L44.3 73.5Z M52 78.6Q52 79 52.2 79.2Q52.3 79.3 52.6 79.4L52.3 80.1Q51.9 80.1 51.6 79.9Q51.3 79.7 51.1 79.2Q50.8 79.7 50.2 79.9Q49.7 80.1 49.1 80.1Q48.1 80.1 47.6 79.6Q47 79 47 78.1Q47 77.1 47.8 76.6Q48.6 76.1 50 76.1H51V75.5Q51 74.8 50.6 74.5Q50.2 74.2 49.4 74.2Q49.1 74.2 48.7 74.3Q48.3 74.4 47.8 74.6L47.5 73.8Q48.1 73.6 48.6 73.5Q49.1 73.4 49.6 73.4Q50.8 73.4 51.4 74Q52 74.5 52 75.5ZM49.4 79.4Q49.8 79.4 50.3 79.1Q50.7 78.9 51 78.4V76.8H50.1Q49 76.8 48.5 77.1Q48.1 77.5 48.1 78.1Q48.1 79.4 49.4 79.4Z M60.1 77.7Q60.1 78.4 59.8 78.9Q59.4 79.5 58.7 79.8Q58 80.1 57 80.1Q56.1 80.1 55.4 79.9Q54.6 79.6 54.1 79.1L54.7 78.3Q55.1 78.8 55.7 79Q56.3 79.2 57.1 79.2Q57.6 79.2 58 79.1Q58.5 78.9 58.8 78.6Q59 78.2 59 77.7Q59 77.3 58.9 77Q58.7 76.7 58.3 76.5Q57.9 76.2 57.2 76Q56.3 75.8 55.7 75.5Q55.1 75.2 54.8 74.7Q54.4 74.2 54.4 73.6Q54.4 72.9 54.8 72.4Q55.1 72 55.8 71.7Q56.4 71.4 57.2 71.4Q58.1 71.4 58.7 71.6Q59.4 71.9 59.9 72.4L59.3 73.1Q58.8 72.7 58.3 72.5Q57.8 72.3 57.2 72.3Q56.5 72.3 56 72.6Q55.5 72.9 55.5 73.5Q55.5 73.9 55.7 74.2Q55.9 74.4 56.4 74.6Q56.9 74.9 57.7 75.1Q58.3 75.3 58.9 75.6Q59.5 75.9 59.8 76.4Q60.1 76.8 60.1 77.7Z M65.1 79.2Q65.6 79.2 66 79.1Q66.4 78.9 66.8 78.7L67.3 79.4Q66.9 79.7 66.3 79.9Q65.7 80.1 65.1 80.1Q64.1 80.1 63.4 79.7Q62.8 79.3 62.4 78.6Q62 77.8 62 76.8Q62 75.8 62.4 75Q62.8 74.3 63.4 73.8Q64.1 73.4 65.1 73.4Q66.3 73.4 67.3 74.1L66.8 74.8Q65.9 74.2 65.1 74.2Q64.3 74.2 63.7 74.9Q63.2 75.5 63.2 76.8Q63.2 78.1 63.7 78.7Q64.3 79.2 65.1 79.2Z M69.6 80V79.2H70.6V74.3H69.6V73.5H71.4L71.6 75.1Q72 74.3 72.5 73.8Q73 73.4 73.9 73.4Q74.2 73.4 74.4 73.4Q74.6 73.5 74.8 73.5L74.7 75.7H73.8V74.3Q73.8 74.3 73.8 74.3Q72.3 74.3 71.6 76.5V79.2H73V80Z M79.4 70.5Q79.7 70.5 79.9 70.7Q80.1 70.9 80.1 71.2Q80.1 71.5 79.9 71.7Q79.7 71.9 79.4 71.9Q79.1 71.9 78.8 71.7Q78.6 71.5 78.6 71.2Q78.6 70.9 78.8 70.7Q79.1 70.5 79.4 70.5ZM80.2 73.5V79.2H82V80H77.2V79.2H79.2V74.3H77.2V73.5Z M87.2 73.4Q88.1 73.4 88.6 73.8Q89.1 74.2 89.3 75Q89.6 75.7 89.6 76.8Q89.6 77.7 89.3 78.5Q89 79.3 88.5 79.7Q87.9 80.1 87.1 80.1Q86 80.1 85.3 79.4V82.5L84.3 82.6V73.5H85.2L85.3 74.4Q85.6 73.9 86.1 73.7Q86.6 73.4 87.2 73.4ZM87 74.2Q86.4 74.2 86 74.5Q85.6 74.9 85.3 75.3V78.5Q85.6 78.8 86 79.1Q86.4 79.3 86.8 79.3Q87.6 79.3 88 78.7Q88.4 78 88.4 76.8Q88.4 74.2 87 74.2Z M96.8 79.7Q96.5 79.9 96 80Q95.6 80.1 95.1 80.1Q94.1 80.1 93.5 79.6Q92.9 79 92.9 78.2V74.3H91.4V73.5H92.9V72L94 71.9V73.5H96.2L96.1 74.3H94V78.2Q94 78.7 94.2 79Q94.5 79.3 95.2 79.3Q95.6 79.3 95.9 79.2Q96.2 79.1 96.4 79Z M100.4 79.1Q100.4 78.6 100.8 78.3Q101.1 78 101.5 78Q102 78 102.3 78.3Q102.6 78.6 102.6 79.1Q102.6 79.5 102.3 79.8Q102 80.1 101.5 80.1Q101.1 80.1 100.8 79.8Q100.4 79.5 100.4 79.1Z" fill="#C9D1D9"/>
  <circle cx="29" cy="108" r="5" fill="#F1E05A"/>
  <path d="M46.9 112V108.3H43.9V112H42.9V104.2H43.9V107.5H46.9V104.2H47.8V112Z M52.6 105.1V112H51.6V105.1H49.2V104.2H55.1L55 105.1Z M61.5 104.2 62 112H61L60.8 107.9Q60.8 107.4 60.7 106.8Q60.7 106.3 60.7 105.8Q60.7 105.4 60.7 105.1L59.4 110.6H58.4L57 105.1Q57 105.3 57 105.8Q57 106.3 57 106.9Q57 107.4 57 107.9L56.8 112H55.9L56.3 104.2H57.7L58.9 109.6L60.1 104.2Z M63.8 112V104.2H64.8V111.1H68.4L68.2 112Z M79.6 102.9V113.2H78.8V102.9Z M93.4 104.1Q94.2 104.1 94.7 104.3Q95.2 104.5 95.7 104.9L95.1 105.5Q94.8 105.2 94.4 105.1Q93.9 104.9 93.5 104.9Q92.9 104.9 92.3 105.2Q91.8 105.5 91.4 106.2Q91.1 106.9 91.1 108.1Q91.1 109.3 91.4 110Q91.7 110.7 92.3 111Q92.8 111.3 93.5 111.3Q94.1 111.3 94.5 111.1Q95 110.9 95.3 110.6L95.8 111.3Q95.4 111.6 94.9 111.9Q94.3 112.1 93.5 112.1Q92.5 112.1 91.8 111.7Q91 111.2 90.5 110.3Q90.1 109.4 90.1 108.1Q90.1 106.8 90.6 105.9Q91 105 91.8 104.6Q92.5 104.1 93.4 104.1Z M102.2 109.9Q102.2 110.5 101.9 111Q101.5 111.5 100.9 111.8Q100.3 112.1 99.4 112.1Q98.5 112.1 97.8 111.9Q97.1 111.6 96.6 111.1L97.2 110.5Q97.6 110.9 98.2 111.1Q98.7 111.3 99.4 111.3Q99.9 111.3 100.3 111.2Q100.7 111 100.9 110.7Q101.2 110.4 101.2 109.9Q101.2 109.5 101 109.2Q100.9 109 100.5 108.8Q100.2 108.5 99.5 108.4Q98.7 108.1 98.2 107.8Q97.6 107.6 97.3 107.1Q97 106.7 97 106.1Q97 105.5 97.3 105.1Q97.6 104.6 98.2 104.4Q98.8 104.1 99.5 104.1Q100.3 104.1 100.9 104.3Q101.5 104.6 102 105L101.4 105.6Q101 105.3 100.5 105.1Q100 104.9 99.5 104.9Q98.9 104.9 98.4 105.2Q98 105.5 98 106.1Q98 106.4 98.2 106.6Q98.3 106.9 98.8 107.1Q99.2 107.3 99.9 107.5Q100.5 107.7 101.1 107.9Q101.6 108.2 101.9 108.7Q102.2 109.1 102.2 109.9Z M109 109.9Q109 110.5 108.6 111Q108.3 111.5 107.7 111.8Q107 112.1 106.1 112.1Q105.3 112.1 104.6 111.9Q103.9 111.6 103.4 111.1L104 110.5Q104.4 110.9 104.9 111.1Q105.4 111.3 106.2 111.3Q106.6 111.3 107 111.2Q107.5 111 107.7 110.7Q108 110.4 108 109.9Q108 109.5 107.8 109.2Q107.7 109 107.3 108.8Q106.9 108.5 106.3 108.4Q105.5 108.1 104.9 107.8Q104.4 107.6 104.1 107.1Q103.8 106.7 103.8 106.1Q103.8 105.5 104.1 105.1Q104.4 104.6 105 104.4Q105.5 104.1 106.3 104.1Q107.1 104.1 107.7 104.3Q108.3 104.6 108.8 105L108.2 105.6Q107.8 105.3 107.3 105.1Q106.8 104.9 106.3 104.9Q105.7 104.9 105.2 105.2Q104.8 105.5 104.8 106.1Q104.8 106.4 104.9 106.6Q105.1 106.9 105.5 107.1Q106 107.3 106.7 107.5Q107.3 107.7 107.8 107.9Q108.3 108.2 108.7 108.7Q109 109.1 109 109.9Z M120.3 102.9V113.2H119.4V102.9Z M135.6 104.2V109.4Q135.6 109.9 135.5 110.4Q135.3 110.9 135 111.3Q134.7 111.7 134.2 111.9Q133.7 112.1 133 112.1Q131.8 112.1 130.8 111.4L131.3 110.8Q131.8 111.1 132.2 111.2Q132.6 111.3 132.9 111.3Q133.7 111.3 134.2 110.8Q134.6 110.3 134.6 109.4V105H132.3V104.2Z M142.2 110.7Q142.2 111.1 142.3 111.2Q142.4 111.4 142.6 111.5L142.4 112.1Q142 112.1 141.7 111.9Q141.5 111.7 141.3 111.3Q141 111.7 140.5 111.9Q140 112.1 139.5 112.1Q138.6 112.1 138.1 111.6Q137.5 111.1 137.5 110.3Q137.5 109.4 138.3 108.9Q139 108.4 140.3 108.4H141.2V107.9Q141.2 107.3 140.8 107Q140.5 106.7 139.8 106.7Q139.5 106.7 139.1 106.8Q138.7 106.9 138.2 107L138 106.3Q138.5 106.1 139 106Q139.5 105.9 139.9 105.9Q141 105.9 141.6 106.5Q142.2 107 142.2 107.9ZM139.7 111.4Q140.1 111.4 140.5 111.2Q140.9 111 141.2 110.6V109H140.3Q139.4 109 139 109.4Q138.6 109.7 138.6 110.3Q138.6 111.4 139.7 111.4Z M149.6 106.1 147.5 112H146.4L144.2 106.1H145.2L146.9 111.1L148.6 106.1Z M155.7 110.7Q155.7 111.1 155.8 111.2Q155.9 111.4 156.2 111.5L155.9 112.1Q155.6 112.1 155.3 111.9Q155 111.7 154.9 111.3Q154.5 111.7 154.1 111.9Q153.6 112.1 153 112.1Q152.1 112.1 151.6 111.6Q151.1 111.1 151.1 110.3Q151.1 109.4 151.8 108.9Q152.5 108.4 153.9 108.4H154.7V107.9Q154.7 107.3 154.4 107Q154 106.7 153.3 106.7Q153 106.7 152.6 106.8Q152.2 106.9 151.8 107L151.5 106.3Q152.1 106.1 152.6 106Q153 105.9 153.5 105.9Q154.6 105.9 155.1 106.5Q155.7 107 155.7 107.9ZM153.2 111.4Q153.7 111.4 154.1 111.2Q154.5 111 154.7 110.6V109H153.9Q152.9 109 152.5 109.4Q152.1 109.7 152.1 110.3Q152.1 111.4 153.2 111.4Z M163.1 109.9Q163.1 110.5 162.8 111Q162.5 111.5 161.8 111.8Q161.2 112.1 160.3 112.1Q159.4 112.1 158.7 111.9Q158.1 111.6 157.6 111.1L158.1 110.5Q158.5 110.9 159.1 111.1Q159.6 111.3 160.3 111.3Q160.8 111.3 161.2 111.2Q161.6 111 161.9 110.7Q162.1 110.4 162.1 109.9Q162.1 109.5 162 109.2Q161.8 109 161.4 108.8Q161.1 108.5 160.4 108.4Q159.6 108.1 159.1 107.8Q158.5 107.6 158.2 107.1Q157.9 106.7 157.9 106.1Q157.9 105.5 158.2 105.1Q158.5 104.6 159.1 104.4Q159.7 104.1 160.4 104.1Q161.2 104.1 161.8 104.3Q162.4 104.6 162.9 105L162.3 105.6Q161.9 105.3 161.4 105.1Q161 104.9 160.5 104.9Q159.8 104.9 159.4 105.2Q158.9 105.5 158.9 106.1Q158.9 106.4 159.1 106.6Q159.3 106.9 159.7 107.1Q160.1 107.3 160.9 107.5Q161.5 107.7 162 107.9Q162.5 108.2 162.8 108.7Q163.1 109.1 163.1 109.9Z M167.7 111.3Q168.1 111.3 168.5 111.2Q168.9 111 169.2 110.8L169.7 111.4Q169.3 111.7 168.7 111.9Q168.2 112.1 167.7 112.1Q166.8 112.1 166.2 111.7Q165.5 111.4 165.2 110.7Q164.9 110 164.9 109.1Q164.9 108.2 165.2 107.5Q165.5 106.8 166.2 106.3Q166.8 105.9 167.7 105.9Q168.8 105.9 169.7 106.6L169.2 107.3Q168.4 106.7 167.7 106.7Q166.9 106.7 166.4 107.3Q165.9 107.9 165.9 109.1Q165.9 110.2 166.4 110.8Q166.9 111.3 167.7 111.3Z M171.8 112V111.3H172.7V106.8H171.8V106.1H173.5L173.6 107.5Q174 106.7 174.5 106.3Q175 105.9 175.8 105.9Q176 105.9 176.2 106Q176.4 106 176.6 106.1L176.5 108.1H175.7V106.8Q175.7 106.8 175.6 106.8Q174.3 106.8 173.7 108.8V111.3H174.9V112Z M180.8 103.3Q181.1 103.3 181.3 103.5Q181.5 103.7 181.5 103.9Q181.5 104.2 181.3 104.4Q181.1 104.6 180.8 104.6Q180.5 104.6 180.3 104.4Q180.1 104.2 180.1 103.9Q180.1 103.7 180.3 103.5Q180.5 103.3 180.8 103.3ZM181.5 106.1V111.2H183.2V112H178.7V111.2H180.6V106.8H178.8V106.1Z M187.9 105.9Q188.7 105.9 189.2 106.3Q189.7 106.7 189.9 107.4Q190.1 108.1 190.1 109Q190.1 109.9 189.8 110.6Q189.6 111.3 189.1 111.7Q188.6 112.1 187.8 112.1Q186.8 112.1 186.2 111.4V114.3L185.3 114.4V106.1H186.1L186.2 106.9Q186.5 106.4 187 106.2Q187.4 105.9 187.9 105.9ZM187.7 106.7Q187.2 106.7 186.9 107Q186.5 107.3 186.2 107.7V110.6Q186.5 110.9 186.8 111.1Q187.2 111.3 187.6 111.3Q188.3 111.3 188.7 110.8Q189.1 110.2 189.1 109Q189.1 106.7 187.7 106.7Z M196.8 111.7Q196.5 111.9 196 112Q195.6 112.1 195.2 112.1Q194.2 112.1 193.7 111.6Q193.2 111.1 193.2 110.3V106.8H191.8V106.1H193.2V104.7L194.1 104.6V106.1H196.2L196.1 106.8H194.1V110.3Q194.1 110.8 194.4 111.1Q194.7 111.3 195.3 111.3Q195.6 111.3 195.9 111.3Q196.2 111.2 196.4 111.1Z" fill="#9DA7B3"/>
</svg>
